# xmcd
#
# Track frame offsets: 
#        150
#        25690
#        46003
#        65648
#        83178
#        107361
#        129769
#        150717
#        177259
#        193319
#        210623
#        231691
#        249393
#        272646
#        294196
#        314782
#        333563
#        353048
#
# Disc length: 4804 seconds
#
# Revision: 1
# Processed by: cddbd v1.5.2PL0 Copyright (c) Steve Scherf et al.
# Submitted via: ExactAudioCopy v1.1
#
DISCID=0512c212
DTITLE=Carlos Santana - Super Hits Of...CD-4
DYEAR=2006
DGENRE=Blues
TTITLE0=The Healer (with John Lee Hooker)
TTITLE1=Nothing At All (with Musiq)
TTITLE2=You Are My Kind (with Seal)
TTITLE3=Amore (Sexo) (with Macy Gray)
TTITLE4=Victory Is Won
TTITLE5=Get Down (with Junior Wells)
TTITLE6=Hoy Es Adios (with Alejandro Lerner)
TTITLE7=One of These Days (with Ozomatli)
TTITLE8=Trinity (with Kirk Hammett and Robert Randolph)
TTITLE9=Cry Baby Cry (with Joss Stone and Sean Paul)
TTITLE10=Brown Skin Girl (with Bo Bice)
TTITLE11=I Don't Wanna Lose Your Love (with Los Lonely Boys)
TTITLE12=Twisted (with Anthony Hamilton)
TTITLE13=We'll Meet Again (with John Lee Hooker)
TTITLE14=My Man (with Big Boi and Mary J. Blige)
TTITLE15=Just Feel Better (with Steven Tyler)
TTITLE16=Satelite (bonus track)
TTITLE17=The Healer (reprise
EXTD=
EXTT0=
EXTT1=
EXTT2=
EXTT3=
EXTT4=
EXTT5=
EXTT6=
EXTT7=
EXTT8=
EXTT9=
EXTT10=
EXTT11=
EXTT12=
EXTT13=
EXTT14=
EXTT15=
EXTT16=
EXTT17=
PLAYORDER=
